<svg width="180" height="180" viewBox="0 0 180 180" fill="none" xmlns="http://www.w3.org/2000/svg">
<path fill-rule="evenodd" clip-rule="evenodd" d="M11 119.187H24.5C24.5 119.187 24.5 78.4362 24.5 34.187C24.5 -10.0623 114.5 -10.0623 114.5 34.187C114.5 78.4362 114.5 144.189 114.5 158.687C114.5 173.186 146 171.936 146 158.687C146 145.438 146 86.1871 146 86.1871H169V98.6871H159C159 98.6871 159 131.938 159 158.687C159 185.436 102 185.436 102 158.687C102 131.938 103 59.4361 102 34.187C101 8.9378 38.5 7.9378 38.5 34.187C38.5 60.4361 38.5 130.687 38.5 130.687H11V119.187Z" fill="#EE2C7B" stroke="#EE2C7B"/>
</svg>
